<mxfile host="65bd71144e">
    <diagram id="z9KghAL343yirBgiAfhD" name="Page-1">
        <mxGraphModel dx="902" dy="475" grid="1" gridSize="10" guides="1" tooltips="1" connect="1" arrows="1" fold="1" page="1" pageScale="1" pageWidth="850" pageHeight="1100" math="0" shadow="0">
            <root>
                <mxCell id="0"/>
                <mxCell id="1" parent="0"/>
                <mxCell id="2" value="protocol" style="rounded=1;whiteSpace=wrap;html=1;strokeColor=#8BF026;shadow=1;fillColor=#FF0000;" vertex="1" parent="1">
                    <mxGeometry x="320" y="10" width="140" height="40" as="geometry"/>
                </mxCell>
                <mxCell id="13" style="edgeStyle=none;html=1;fontSize=14;entryX=0;entryY=0.5;entryDx=0;entryDy=0;" edge="1" parent="1" source="3" target="11">
                    <mxGeometry relative="1" as="geometry">
                        <mxPoint x="240" y="160" as="targetPoint"/>
                    </mxGeometry>
                </mxCell>
                <mxCell id="3" value="Actor" style="shape=umlActor;verticalLabelPosition=bottom;verticalAlign=top;html=1;shadow=1;strokeColor=#8BF026;fillColor=#FF0000;" vertex="1" parent="1">
                    <mxGeometry x="30" y="170" width="30" height="60" as="geometry"/>
                </mxCell>
                <mxCell id="6" value="" style="rounded=1;whiteSpace=wrap;html=1;strokeColor=#666666;shadow=1;fillColor=#666666;" vertex="1" parent="1">
                    <mxGeometry x="340" y="110" width="160" height="140" as="geometry"/>
                </mxCell>
                <mxCell id="8" value="unwarp" style="rounded=1;whiteSpace=wrap;html=1;strokeColor=#4D4D4D;shadow=1;fillColor=#333333;" vertex="1" parent="1">
                    <mxGeometry x="350" y="200" width="140" height="30" as="geometry"/>
                </mxCell>
                <mxCell id="11" value="unwarp" style="rounded=1;whiteSpace=wrap;html=1;strokeColor=#4D4D4D;shadow=1;fillColor=#333333;" vertex="1" parent="1">
                    <mxGeometry x="350" y="140" width="140" height="30" as="geometry"/>
                </mxCell>
                <mxCell id="12" value="&lt;b&gt;&lt;font style=&quot;font-size: 14px;&quot;&gt;Warpper contract&lt;/font&gt;&lt;/b&gt;" style="text;html=1;align=center;verticalAlign=middle;resizable=0;points=[];autosize=1;strokeColor=none;fillColor=#191D1C;" vertex="1" parent="1">
                    <mxGeometry x="350" y="80" width="140" height="30" as="geometry"/>
                </mxCell>
            </root>
        </mxGraphModel>
    </diagram>
</mxfile>